<svg width="42" height="42" viewBox="0 0 42 42" fill="none" xmlns="http://www.w3.org/2000/svg">
<g id="twitter">
<path id="Vector" d="M40.25 5.25002C38.5742 6.4321 36.7187 7.33621 34.755 7.92752C33.701 6.71566 32.3003 5.85673 30.7423 5.46689C29.1843 5.07705 27.5441 5.17511 26.0436 5.74781C24.5432 6.32051 23.2548 7.34022 22.3527 8.66902C21.4507 9.99783 20.9785 11.5716 21 13.1775V14.9275C17.9246 15.0073 14.8772 14.3252 12.1293 12.9421C9.3813 11.5589 7.01805 9.51763 5.25 7.00002C5.25 7.00002 -1.75 22.75 14 29.75C10.3959 32.1965 6.10252 33.4231 1.75 33.25C17.5 42 36.75 33.25 36.75 13.125C36.7484 12.6376 36.7015 12.1513 36.61 11.6725C38.3961 9.91113 39.6564 7.68727 40.25 5.25002Z" fill="white" stroke="white" stroke-width="2" stroke-linecap="round" stroke-linejoin="round"/>
</g>
</svg>
